# xmcd
#
# Track frame offsets: 
#        150
#        15605
#        31736
#        48459
#        66352
#        85560
#        95101
#        106761
#        120554
#        136236
#        153232
#        168332
#
# Disc length: 2456 seconds
#
# Revision: 3
# Processed by: cddbd v1.5.2PL0 Copyright (c) Steve Scherf et al.
# Submitted via: ExactAudioCopy v0.99pb4
#
DISCID=8d09960c
DTITLE=Hundred Reasons - Quick The Word Sharp The Action
DYEAR=2007
DGENRE=Rock
TTITLE0=Break The Glass
TTITLE1=No Way Back
TTITLE2=Sick Little Masquerade
TTITLE3=Boy 
TTITLE4=Slipping Away
TTITLE5=Pernavas Iela
TTITLE6=The Shredder
TTITLE7=I'll Never Know
TTITLE8=She Is Poison
TTITLE9=Opera
TTITLE10=Lost For Words
TTITLE11=Out Of Time
EXTD=
EXTT0=
EXTT1=
EXTT2=
EXTT3=
EXTT4=
EXTT5=
EXTT6=
EXTT7=
EXTT8=
EXTT9=
EXTT10=
EXTT11=
PLAYORDER=
